<svg xmlns="http://www.w3.org/2000/svg">
  <symbol id="icon-youtube" viewBox="0 0 24 24">
    <rect x="3" y="5.5" width="18" height="13" rx="4"></rect>
    <path d="m10 9 5 3-5 3Z"></path>
  </symbol>
  <symbol id="icon-play" viewBox="0 0 24 24">
    <circle cx="12" cy="12" r="9"></circle>
    <path d="m10 8 6 4-6 4Z"></path>
  </symbol>
  <symbol id="icon-book" viewBox="0 0 24 24">
    <path d="M4 5.5A2.5 2.5 0 0 1 6.5 3H20v16H7a3 3 0 0 0-3 3Z"></path>
    <path d="M4 5.5V22"></path>
    <path d="M8 7h8"></path>
    <path d="M8 11h6"></path>
  </symbol>
  <symbol id="icon-search" viewBox="0 0 24 24">
    <circle cx="11" cy="11" r="7"></circle>
    <path d="m16.5 16.5 4 4"></path>
  </symbol>
  <symbol id="icon-x" viewBox="0 0 24 24">
    <path d="M18 6 6 18"></path>
    <path d="m6 6 12 12"></path>
  </symbol>
  <symbol id="icon-headphones" viewBox="0 0 24 24">
    <path d="M4 14v-2a8 8 0 0 1 16 0v2"></path>
    <path d="M4 14h4v6H6a2 2 0 0 1-2-2Z"></path>
    <path d="M20 14h-4v6h2a2 2 0 0 0 2-2Z"></path>
  </symbol>
  <symbol id="icon-radio" viewBox="0 0 24 24">
    <path d="M4 10h16v10H4Z"></path>
    <path d="m8 10 8-6"></path>
    <circle cx="9" cy="15" r="2"></circle>
    <path d="M14 14h3"></path>
    <path d="M14 17h3"></path>
  </symbol>
  <symbol id="icon-waves" viewBox="0 0 24 24">
    <path d="M3 8c2 0 2-2 4-2s2 2 4 2 2-2 4-2 2 2 4 2"></path>
    <path d="M3 13c2 0 2-2 4-2s2 2 4 2 2-2 4-2 2 2 4 2"></path>
    <path d="M3 18c2 0 2-2 4-2s2 2 4 2 2-2 4-2 2 2 4 2"></path>
  </symbol>
  <symbol id="icon-spark" viewBox="0 0 24 24">
    <path d="M12 3 10 9l-5 2 5 2 2 6 2-6 5-2-5-2Z"></path>
    <path d="M19 15v4"></path>
    <path d="M17 17h4"></path>
  </symbol>
  <symbol id="icon-layers" viewBox="0 0 24 24">
    <path d="m12 3 9 5-9 5-9-5Z"></path>
    <path d="m3 12 9 5 9-5"></path>
    <path d="m3 16 9 5 9-5"></path>
  </symbol>
  <symbol id="icon-route" viewBox="0 0 24 24">
    <circle cx="6" cy="6" r="3"></circle>
    <circle cx="18" cy="18" r="3"></circle>
    <path d="M9 6h3a4 4 0 0 1 0 8H9a4 4 0 0 0 0 8h3"></path>
  </symbol>
  <symbol id="icon-code" viewBox="0 0 24 24">
    <path d="m8 9-4 3 4 3"></path>
    <path d="m16 9 4 3-4 3"></path>
    <path d="m14 4-4 16"></path>
  </symbol>
  <symbol id="icon-brain" viewBox="0 0 24 24">
    <path d="M9 4a3 3 0 0 0-3 3v1a3 3 0 0 0-2 5.2A3.5 3.5 0 0 0 7.5 19H9"></path>
    <path d="M15 4a3 3 0 0 1 3 3v1a3 3 0 0 1 2 5.2A3.5 3.5 0 0 1 16.5 19H15"></path>
    <path d="M9 4v15"></path>
    <path d="M15 4v15"></path>
    <path d="M9 8h6"></path>
    <path d="M9 14h6"></path>
  </symbol>
  <symbol id="icon-external" viewBox="0 0 24 24">
    <path d="M14 4h6v6"></path>
    <path d="m10 14 10-10"></path>
    <path d="M20 14v6H4V4h6"></path>
  </symbol>
</svg>
